# File created by Blade
# Date/Time:  Tue Jan 27 17:01:45 2015
#---------------------------------------------------------
:version 1.10
:name HOM
:units
  mass 1.0
  length 1.000000
  angle deg
:documentation
     Acclaim Skeleton File
:root
   axis xyz
   order TX TY TZ RX RY RZ
   position 0.000000 0.000000 0.000000
   orientation 0 0 0
:bonedata
   begin
      id 1
      name Spine_dum
      direction 0.000000 1.000000 0.000000
      length 7.539951
      axis 0.0 0.0 0.0 xyz
   end
   begin
      id 2
      name LeftUpLeg_dum
      direction 1.000000 0.000000 0.000000
      length 3.345476
      axis 0.0 0.0 0.0 xyz
   end
   begin
      id 3
      name RightUpLeg_dum
      direction -1.000000 0.000000 0.000000
      length 3.345476
      axis 0.0 0.0 0.0 xyz
   end
   begin
      id 4
      name Spine
      direction 0.000000 1.000000 0.000000
      length 0.000000
      axis 0.0 0.0 0.0 xyz
      dof rx ry rz
   end
   begin
      id 5
      name Spine_dum1
      direction 0.000000 1.000000 0.000000
      length 15.093809
      axis 0.0 0.0 0.0 xyz
   end
   begin
      id 6
      name Spine_dum2
      direction 0.000000 1.000000 0.000000
      length 9.738928
      axis 0.0 0.0 0.0 xyz
   end
   begin
      id 7
      name Spine_dum3
      direction 0.000000 1.000000 0.000000
      length 9.738928
      axis 0.0 0.0 0.0 xyz
   end
   begin
      id 8
      name Head
      direction 0.000000 1.000000 0.000000
      length 4.527550
      axis 0.0 0.0 0.0 xyz
      dof rx ry rz
   end
   begin
      id 9
      name LeftShoulder
      direction 1.000000 0.000000 0.000000
      length 7.084015
      axis 0.0 0.0 -90.0 xyz
      dof rx ry rz
   end
   begin
      id 10
      name LeftArm
      direction 1.000000 0.000000 0.000000
      length 10.259319
      axis 0.0 0.0 -90.0 xyz
      dof rx ry rz
   end
   begin
      id 11
      name LeftForeArm
      direction 1.000000 0.000000 0.000000
      length 9.896984
      axis 0.0 0.0 -90.0 xyz
      dof ry rz rx
   end
   begin
      id 12
      name LeftHand
      direction 0.000000 0.000000 0.000000
      length 0.000000
      axis 0.0 0.0 -90.0 xyz
      dof rx ry rz
   end
   begin
      id 13
      name LeftHand_dum1
      direction 0.000000 0.000000 0.000000
      length 0.000000
      axis 0.0 0.0 -90.0 xyz
   end
   begin
      id 14
      name LeftHand_dum2
      direction 1.000000 0.000000 0.000000
      length 3.937000
      axis 0.0 0.0 -90.0 xyz
   end
   begin
      id 15
      name LeftHandThumb1
      direction 0.000000 0.000000 1.000000
      length 3.937000
      axis 0.0 0.0 -90.0 xyz
      dof rx rz ry
   end
   begin
      id 16
      name RightShoulder
      direction -1.000000 0.000000 0.000000
      length 7.084015
      axis 0.0 0.0 90.0 xyz
      dof rx ry rz
   end
   begin
      id 17
      name RightArm
      direction -1.000000 0.000000 0.000000
      length 10.259319
      axis 0.0 0.0 90.0 xyz
      dof rx ry rz
   end
   begin
      id 18
      name RightForeArm
      direction -1.000000 0.000000 0.000000
      length 9.896984
      axis 0.0 0.0 90.0 xyz
      dof ry rz rx
   end
   begin
      id 19
      name RightHand
      direction 0.000000 0.000000 0.000000
      length 0.000000
      axis 0.0 0.0 90.0 xyz
      dof rx ry rz
   end
   begin
      id 20
      name RightHand_dum1
      direction 0.000000 0.000000 0.000000
      length 0.000000
      axis 0.0 0.0 90.0 xyz
   end
   begin
      id 21
      name RightHand_dum2
      direction -1.000000 0.000000 0.000000
      length 3.937000
      axis 0.0 0.0 90.0 xyz
   end
   begin
      id 22
      name RightHandThumb1
      direction 0.000000 0.000000 1.000000
      length 3.937000
      axis 0.0 0.0 90.0 xyz
      dof rx rz ry
   end
   begin
      id 23
      name LeftUpLeg
      direction 0.000000 -1.000000 0.000000
      length 19.114733
      axis 0.0 0.0 0.0 xyz
      dof rx ry rz
   end
   begin
      id 24
      name LeftLeg
      direction 0.000000 -1.000000 0.000000
      length 16.045604
      axis 0.0 0.0 0.0 xyz
      dof rx ry rz
   end
   begin
      id 25
      name LeftFoot
      direction 0.000000 -0.258819 0.965926
      length 5.543155
      axis 15.0 0.0 0.0 xyz
      dof rx ry rz
   end
   begin
      id 26
      name LeftToeBase
      direction 0.000000 0.000000 1.000000
      length 2.952750
      axis 0.0 0.0 0.0 xyz
      dof rx ry rz
   end
   begin
      id 27
      name RightUpLeg
      direction 0.000000 -1.000000 0.000000
      length 19.114733
      axis 0.0 0.0 0.0 xyz
      dof rx ry rz
   end
   begin
      id 28
      name RightLeg
      direction 0.000000 -1.000000 0.000000
      length 16.045604
      axis 0.0 0.0 0.0 xyz
      dof rx ry rz
   end
   begin
      id 29
      name RightFoot
      direction 0.000000 -0.258819 0.965926
      length 5.543155
      axis 15.0 0.0 0.0 xyz
      dof rx ry rz
   end
   begin
      id 30
      name RightToeBase
      direction 0.000000 0.000000 1.000000
      length 2.952750
      axis 0.0 0.0 0.0 xyz
      dof rx ry rz
   end
:hierarchy
   begin
      root Spine_dum LeftUpLeg_dum RightUpLeg_dum
      Spine_dum Spine
      LeftUpLeg_dum LeftUpLeg
      RightUpLeg_dum RightUpLeg
      Spine Spine_dum1 Spine_dum2 Spine_dum3
      Spine_dum1 Head
      Spine_dum2 LeftShoulder
      Spine_dum3 RightShoulder
      LeftShoulder LeftArm
      LeftArm LeftForeArm
      LeftForeArm LeftHand
      LeftHand LeftHand_dum1 LeftHand_dum2
      LeftHand_dum1 LeftHandThumb1
      RightShoulder RightArm
      RightArm RightForeArm
      RightForeArm RightHand
      RightHand RightHand_dum1 RightHand_dum2
      RightHand_dum1 RightHandThumb1
      LeftUpLeg LeftLeg
      LeftLeg LeftFoot
      LeftFoot LeftToeBase
      RightUpLeg RightLeg
      RightLeg RightFoot
      RightFoot RightToeBase
   end

# File created by Blade
# Date/Time:  Tue Jan 27 17:01:38 2015
# Frame Rate: 120.000 fps
#------------------------------------------------------
:FULLY-SPECIFIED
:DEGREES
1450
root -0.847107 36.901970 4.452079 7.678996 -2.290958 -0.924069
Spine -5.143931 5.116408 -4.689327
Head -2.868073 3.651348 3.581641
LeftShoulder -2.591171 -3.431434 -1.634602
LeftArm -6.708464 -10.450813 -58.385254
LeftForeArm -69.973902 -0.000000 94.947152
LeftHand 2.786657 0.000000 -16.732487
LeftHandThumb1 -26.253704 0.000000 33.147579
RightShoulder -2.479543 -21.804515 1.170500
RightArm 25.732323 -34.113359 51.678688
RightForeArm -148.841281 -0.000000 32.760741
RightHand -0.713915 -0.000000 -2.911996
RightHandThumb1 -24.326973 -0.000000 -32.862282
LeftUpLeg -6.193285 14.704286 3.996392
LeftLeg 7.984870 -0.000000 -0.000000
LeftFoot -16.755681 4.394230 -20.866815
LeftToeBase 14.920257 -0.000000 -0.000000
RightUpLeg -8.961770 -8.187544 -0.761903
RightLeg 10.767994 -0.000000 -0.000000
RightFoot -14.813072 -3.415219 13.597410
RightToeBase 11.102104 -0.000000 -0.000000
1451
root -0.856502 36.901883 4.452463 7.689574 -2.143079 -0.921238
Spine -5.155821 4.973643 -4.675585
Head -2.837936 3.730071 3.515590
LeftShoulder -2.679226 -3.492215 -1.598598
LeftArm -6.389461 -9.639139 -58.081222
LeftForeArm -69.883447 -0.000000 94.836190
LeftHand 2.404733 -0.000000 -17.097259
LeftHandThumb1 -26.253704 0.000000 33.147579
RightShoulder -2.381262 -21.788708 1.135455
RightArm 25.777942 -34.206451 51.648531
RightForeArm -148.896366 -0.000000 32.826512
RightHand -0.741944 0.000000 -2.928559
RightHandThumb1 -24.326973 -0.000000 -32.862282
LeftUpLeg -6.225629 14.626655 4.015050
LeftLeg 7.972645 -0.000000 -0.000000
LeftFoot -16.731076 4.346103 -20.862136
LeftToeBase 14.982871 -0.000000 -0.000000
RightUpLeg -8.949352 -8.271870 -0.736090
RightLeg 10.761446 -0.000000 -0.000000
RightFoot -14.840611 -3.474157 13.598285
RightToeBase 11.098419 -0.000000 -0.000000
1452
root -0.867774 36.903638 4.446212 7.825605 -1.976647 -0.909661
Spine -5.318867 4.570623 -4.658337
Head -2.782077 4.012951 3.428939
LeftShoulder -2.982378 -3.596867 -1.513571
LeftArm -6.126697 -8.848161 -57.751527
LeftForeArm -69.709809 -0.000000 94.733795
LeftHand 2.207361 -0.000000 -17.148460
LeftHandThumb1 -26.253704 0.000000 33.147579
RightShoulder -2.088679 -21.823144 1.024175
RightArm 25.898034 -34.327335 51.595130
RightForeArm -148.962859 -0.000000 32.878779
RightHand -0.790423 0.000000 -2.861024
RightHandThumb1 -24.326973 -0.000000 -32.862282
LeftUpLeg -6.414692 14.532822 3.995684
LeftLeg 7.989536 -0.000000 -0.000000
LeftFoot -16.672843 4.316920 -20.827553
LeftToeBase 14.982151 -0.000000 -0.000000
RightUpLeg -9.077504 -8.360132 -0.693927
RightLeg 10.762225 -0.000000 -0.000000
RightFoot -14.862866 -3.544542 13.619449
RightToeBase 11.085338 -0.000000 -0.000000
1453
root -0.874152 36.903631 4.440618 7.795463 -1.857759 -0.932243
Spine -5.283869 4.867578 -4.660618
Head -2.736016 3.694622 3.421602
LeftShoulder -2.569707 -3.628590 -1.475007
LeftArm -5.811328 -8.194335 -57.460090
LeftForeArm -69.484417 -0.000000 94.657559
LeftHand 1.895303 -0.000000 -17.210781
LeftHandThumb1 -26.253704 0.000000 33.147579
RightShoulder -2.354354 -21.799624 1.163503
RightArm 25.872797 -34.351133 51.548890
RightForeArm -148.875444 -0.000000 33.006277
RightHand -0.841031 -0.000000 -2.855930
RightHandThumb1 -24.326973 -0.000000 -32.862282
LeftUpLeg -6.415259 14.463488 4.042229
LeftLeg 7.996644 -0.000000 -0.000000
LeftFoot -16.651922 4.287916 -20.809372
LeftToeBase 14.967895 -0.000000 -0.000000
RightUpLeg -9.046305 -8.433117 -0.653632
RightLeg 10.772220 -0.000000 -0.000000
RightFoot -14.876648 -3.567460 13.636166
RightToeBase 11.088059 -0.000000 -0.000000
1454
root -0.881989 36.903657 4.439279 7.761951 -1.755108 -0.933476
Spine -5.237942 4.908016 -4.660480
Head -2.721951 3.667758 3.380144
LeftShoulder -2.422381 -3.713103 -1.423153
LeftArm -5.528805 -7.566241 -57.105968
LeftForeArm -69.193675 -0.000000 94.553908
LeftHand 1.507825 -0.000000 -17.288999
LeftHandThumb1 -26.253704 0.000000 33.147579
RightShoulder -2.385011 -21.805025 1.221238
RightArm 25.925525 -34.368196 51.464677
RightForeArm -148.868844 0.000000 33.137003
RightHand -0.783554 -0.000000 -2.882571
RightHandThumb1 -24.326973 -0.000000 -32.862282
LeftUpLeg -6.390248 14.399251 4.071610
LeftLeg 7.973048 -0.000000 -0.000000
LeftFoot -16.614707 4.263380 -20.803274
LeftToeBase 14.969308 -0.000000 -0.000000
RightUpLeg -9.001819 -8.483445 -0.642150
RightLeg 10.775672 -0.000000 -0.000000
RightFoot -14.895196 -3.583595 13.661957
RightToeBase 11.128324 -0.000000 -0.000000
1455
root -0.889626 36.903387 4.440964 7.714517 -1.659353 -0.931320
Spine -5.171792 4.882767 -4.643796
Head -2.730469 3.663839 3.323506
LeftShoulder -2.369586 -3.782162 -1.369351
LeftArm -5.209668 -6.932623 -56.733544
LeftForeArm -68.819958 -0.000000 94.440769
LeftHand 1.445355 -0.000000 -17.377429
LeftHandThumb1 -26.253704 0.000000 33.147579
RightShoulder -2.355859 -21.780013 1.222754
RightArm 26.000564 -34.421766 51.400489
RightForeArm -148.976210 -0.000000 33.216527
RightHand -0.694520 -0.000000 -2.848636
RightHandThumb1 -24.326973 -0.000000 -32.862282
LeftUpLeg -6.340077 14.360662 4.099763
LeftLeg 7.937802 -0.000000 -0.000000
LeftFoot -16.581601 4.218468 -20.802279
LeftToeBase 14.988169 -0.000000 -0.000000
RightUpLeg -8.936091 -8.544071 -0.629906
RightLeg 10.768523 -0.000000 -0.000000
RightFoot -14.910611 -3.614454 13.670256
RightToeBase 11.099115 -0.000000 -0.000000
1456
root -0.899114 36.902920 4.440492 7.664065 -1.550171 -0.936838
Spine -5.098161 4.847279 -4.625052
Head -2.732968 3.700659 3.262650
LeftShoulder -2.291988 -3.860022 -1.286096
LeftArm -4.844032 -6.494569 -56.470491
LeftForeArm -68.466512 0.000000 94.258174
LeftHand 1.234814 0.000000 -17.647758
LeftHandThumb1 -26.253704 0.000000 33.147579
RightShoulder -2.316311 -21.765362 1.227292
RightArm 26.096470 -34.495936 51.313027
RightForeArm -148.990444 -0.000000 33.286725
RightHand -0.824802 -0.000000 -2.790902
RightHandThumb1 -24.326973 -0.000000 -32.862282
LeftUpLeg -6.299520 14.321479 4.139376
LeftLeg 7.918999 -0.000000 -0.000000
LeftFoot -16.537748 4.166077 -20.773608
LeftToeBase 14.948279 -0.000000 -0.000000
RightUpLeg -8.869743 -8.621085 -0.607117
RightLeg 10.762625 -0.000000 -0.000000
RightFoot -14.926449 -3.645341 13.641975
RightToeBase 11.069082 -0.000000 -0.000000
1457
root -0.909125 36.902735 4.439416 7.625041 -1.436425 -0.943695
Spine -5.034852 4.827962 -4.607339
Head -2.743581 3.717836 3.230537
LeftShoulder -2.191910 -3.973676 -1.229279
LeftArm -4.569520 -5.948166 -56.082479
LeftForeArm -68.007725 0.000000 94.147170
LeftHand 0.949847 -0.000000 -17.508348
LeftHandThumb1 -26.253704 0.000000 33.147579
RightShoulder -2.314194 -21.744498 1.266168
RightArm 26.151371 -34.517842 51.238163
RightForeArm -149.054430 -0.000000 33.413956
RightHand -0.817431 -0.000000 -2.633873
RightHandThumb1 -24.326973 -0.000000 -32.862282
LeftUpLeg -6.276148 14.280125 4.178329
LeftLeg 7.904637 -0.000000 -0.000000
LeftFoot -16.506021 4.107763 -20.774860
LeftToeBase 14.997708 -0.000000 -0.000000
RightUpLeg -8.818236 -8.696725 -0.580420
RightLeg 10.763737 -0.000000 -0.000000
RightFoot -14.951991 -3.662419 13.662671
RightToeBase 11.112732 -0.000000 -0.000000
1458
root -0.918431 36.902410 4.438219 7.567786 -1.319937 -0.950736
Spine -4.946787 4.776145 -4.573725
Head -2.743469 3.730340 3.183924
LeftShoulder -2.110088 -4.107442 -1.176015
LeftArm -4.320050 -5.348796 -55.666381
LeftForeArm -67.718859 -0.000000 94.034953
LeftHand 1.025579 -0.000000 -17.662080
LeftHandThumb1 -26.253704 0.000000 33.147579
RightShoulder -2.284042 -21.738008 1.279138
RightArm 26.238288 -34.523457 51.159860
RightForeArm -148.958772 -0.000000 33.492674
RightHand -0.911006 0.000000 -2.732528
RightHandThumb1 -24.326973 -0.000000 -32.862282
LeftUpLeg -6.232859 14.204179 4.223592
LeftLeg 7.891085 -0.000000 -0.000000
LeftFoot -16.471645 4.074705 -20.764158
LeftToeBase 15.005510 -0.000000 -0.000000
RightUpLeg -8.743827 -8.787605 -0.555013
RightLeg 10.749742 -0.000000 -0.000000
RightFoot -14.955275 -3.677673 13.663591
RightToeBase 11.066565 -0.000000 -0.000000
1459
root -0.929302 36.901622 4.439818 7.470468 -1.181403 -0.957705
Spine -4.805164 4.716677 -4.544856
Head -2.773622 3.759981 3.136513
LeftShoulder -2.012327 -4.242093 -1.148729
LeftArm -4.043847 -4.790834 -55.197004
LeftForeArm -67.506824 -0.000000 93.918708
LeftHand 0.840718 -0.000000 -17.639607
LeftHandThumb1 -26.253704 0.000000 33.147579
RightShoulder -2.250830 -21.706163 1.300039
RightArm 26.305226 -34.530292 51.095198
RightForeArm -148.872212 -0.000000 33.582579
RightHand -0.859316 -0.000000 -2.790828
RightHandThumb1 -24.326973 -0.000000 -32.862282
LeftUpLeg -6.143983 14.101027 4.284235
LeftLeg 7.870730 -0.000000 -0.000000
LeftFoot -16.449954 4.028208 -20.783707
LeftToeBase 15.035200 -0.000000 -0.000000
RightUpLeg -8.618847 -8.912210 -0.531032
RightLeg 10.733704 -0.000000 -0.000000
RightFoot -14.977609 -3.687156 13.664703
RightToeBase 11.083606 -0.000000 -0.000000
1460
root -0.941354 36.900899 4.437844 7.421620 -1.095152 -0.972950
Spine -4.726950 4.715542 -4.515639
Head -2.783349 3.750895 3.100418
LeftShoulder -1.917565 -4.359749 -1.273179
LeftArm -3.662602 -4.144278 -54.390420
LeftForeArm -67.766849 0.000000 93.780443
LeftHand 0.645614 0.000000 -17.817365
LeftHandThumb1 -26.253704 0.000000 33.147579
RightShoulder -2.249999 -21.700814 1.309693
RightArm 26.415794 -34.530354 51.043018
RightForeArm -148.841585 -0.000000 33.649451
RightHand -0.853920 -0.000000 -2.719955
RightHandThumb1 -24.326973 -0.000000 -32.862282
LeftUpLeg -6.109129 14.082359 4.333815
LeftLeg 7.863683 -0.000000 -0.000000
LeftFoot -16.414104 3.984251 -20.755445
LeftToeBase 14.986978 -0.000000 -0.000000
RightUpLeg -8.559225 -8.956270 -0.497616
RightLeg 10.729863 -0.000000 -0.000000
RightFoot -14.992040 -3.728928 13.640923
RightToeBase 11.104095 -0.000000 -0.000000
1461
root -0.955085 36.900239 4.436484 7.351691 -0.997052 -1.000226
Spine -4.615642 4.675187 -4.471197
Head -2.811733 3.791159 3.060271
LeftShoulder -1.887948 -4.459944 -1.277558
LeftArm -3.265294 -3.507627 -53.840405
LeftForeArm -67.902947 0.000000 93.583578
LeftHand 0.550683 -0.000000 -17.926792
LeftHandThumb1 -26.253704 0.000000 33.147579
RightShoulder -2.217770 -21.664713 1.312917
RightArm 26.499275 -34.539213 51.003507
RightForeArm -148.833911 0.000000 33.719576
RightHand -0.922162 -0.000000 -2.674656
RightHandThumb1 -24.326973 -0.000000 -32.862282
LeftUpLeg -6.052678 14.044498 4.407111
LeftLeg 7.855477 -0.000000 -0.000000
LeftFoot -16.390101 3.930066 -20.751998
LeftToeBase 14.999153 -0.000000 -0.000000
RightUpLeg -8.473222 -9.035260 -0.448095
RightLeg 10.717538 -0.000000 -0.000000
RightFoot -15.003330 -3.746424 13.634976
RightToeBase 11.126095 -0.000000 -0.000000
